<?xml version="1.0" encoding="utf-8"?>
<?xml-stylesheet type="text/xsl" href="rss1.xsl"?>
<rss version="2.0" xmlns:atom="http://www.w3.org/2005/Atom" xmlns:content="http://purl.org/rss/1.0/modules/content/" xmlns:dc="http://purl.org/dc/elements/1.1/" xmlns:media="http://search.yahoo.com/mrss/">
<channel>
 <title>Getty</title>
 <link>http://www.gettyimg.com/</link>
 <atom:link href="http://www.gettyimg.com/" rel="self" type="application/rss+xml" />

 
                <item>
                <title><![CDATA[【Requests】[REQ AUD] - The weeknd highlights deluxe]]></title>
                <link><![CDATA[https://sharemania.us/threads/the-weeknd-highlights-deluxe.237601/]]></link>
                <description><![CDATA[<article>
<blockquote class="messageText SelectQuoteContainer ugc baseHtml">
<a href="https://tidal.com/browse/album/344452095" target="_blank" class="externalLink" rel="nofollow">https://tidal.com/browse/album/344452095</a> damn he added loads more tracks to this anybody has it ? Cheers &amp; respect as always
<div class="messageTextEndMarker">&nbsp;</div>
</blockquote>
</article>]]></description>
                <author><![CDATA[Chief Reef]]></author>
                </item>

                
                <item>
                <title><![CDATA[【Music Videos】Coolio - Gangsta's Paradise (1080p 5.1) (Clean)]]></title>
                <link><![CDATA[https://sharemania.us/threads/coolio-gangstas-paradise-1080p-5-1-clean.237602/]]></link>
                <description><![CDATA[<article>
<blockquote class="messageText SelectQuoteContainer ugc baseHtml">
<img src="https://i.ibb.co/Yy5Zrhd/Coolio-Gangsta-s-Paradise-1080p-5-1-mp4-thumbs-2024-02-12-15-02-04.jpg" class="bbCodeImage LbImage" alt="[​IMG]" data-url="https://i.ibb.co/Yy5Zrhd/Coolio-Gangsta-s-Paradise-1080p-5-1-mp4-thumbs-2024-02-12-15-02-04.jpg" style=""> <br>
<br>
<div class="ToggleTriggerAnchor bbCodeSpoilerContainer">
<button type="button" class="button bbCodeSpoilerButton ToggleTrigger Tooltip JsOnly" data-target="> .SpoilerTarget"><span>Spoiler: <span class="SpoilerTitle">MediaInfo</span></span></button>
<div class="SpoilerTarget bbCodeSpoilerText">Coolio - Gangsta's Paradise (1080p 5.1).mp4<br>
Format : MPEG-4<br>
Format profile : Base Media / Version 2<br>
Codec ID : mp42 (mp42/mp41)<br>
File size : 303 MiB<br>
Duration : 4 min 14 s<br>
Overall bit rate mode : Variable<br>
Overall bit rate : 9 985 kb/s<br>
Frame rate : 30.000 FPS<br>
Encoded date : 2024-02-12 17:51:32 UTC<br>
Tagged date : 2024-02-12 17:52:08 UTC<br>
TIM : 00:00:00:00<br>
TSC : 30<br>
TSZ : 1<br>
<br>
Video<br>
ID : 1<br>
Format : AVC<br>
Format/Info : Advanced Video Codec<br>
Format profile : Main@L4.1<br>
Format settings : CABAC / 4 Ref Frames<br>
Format settings, CABAC : Yes<br>
Format settings, Reference : 4 frames<br>
Codec ID : avc1<br>
Codec ID/Info : Advanced Video Coding<br>
Duration : 4 min 14 s<br>
Bit rate : 9 663 kb/s<br>
Width : 1 920 pixels<br>
Height : 1 080 pixels<br>
Display aspect ratio : 16:9<br>
Frame rate mode : Constant<br>
Frame rate : 30.000 FPS<br>
Color space : YUV<br>
Chroma subsampling : 4:2:0<br>
Bit depth : 8 bits<br>
Scan type : Progressive<br>
Bits/(Pixel*Frame) : 0.155<br>
Stream size : 293 MiB (97%)<br>
Language : English<br>
Encoded date : 2024-02-12 17:51:32 UTC<br>
Tagged date : 2024-02-12 17:51:32 UTC<br>
Color range : Limited<br>
Color primaries : BT.709<br>
Transfer characteristics : BT.709<br>
Matrix coefficients : BT.709<br>
Codec configuration box : avcC<br>
<br>
Audio<br>
ID : 2<br>
Format : AAC LC<br>
Format/Info : Advanced Audio Codec Low Complexity<br>
Codec ID : mp4a-40-2<br>
Duration : 4 min 14 s<br>
Source duration : 4 min 14 s<br>
Bit rate mode : Variable<br>
Bit rate : 317 kb/s<br>
Maximum bit rate : 764 kb/s<br>
Channel(s) : 6 channels<br>
Channel layout : C L R Ls Rs LFE<br>
Sampling rate : 48.0 kHz<br>
Frame rate : 46.875 FPS (1024 SPF)<br>
Compression mode : Lossy<br>
Stream size : 9.64 MiB (3%)<br>
Source stream size : 9.64 MiB (3%)<br>
Language : English<br>
Encoded date : 2024-02-12 17:51:32 UTC<br>
Tagged date : 2024-02-12 17:51:32 UTC</div>
</div><br>
<div class="bbCodeBlock bbCodeVfcHH HiddenContent">
<div class="attribution type">Hidden Content:</div>
<blockquote>You must reply before you can see the hidden data contained here.</blockquote>
</div>
<div class="messageTextEndMarker">&nbsp;</div>
</blockquote>
</article>]]></description>
                <author><![CDATA[DJ-RoGeRs-BS]]></author>
                </item>

                
                <item>
                <title><![CDATA[【UPSCALED】PACK - Taylor Swift Video Pack x35 (Ai Upscale) 4K]]></title>
                <link><![CDATA[https://sharemania.us/threads/taylor-swift-video-pack-x35-ai-upscale-4k.237603/]]></link>
                <description><![CDATA[<article>
<blockquote class="messageText SelectQuoteContainer ugc baseHtml">
<img src="https://images2.imgbox.com/bc/cd/4YVg5QM7_o.jpg" class="bbCodeImage LbImage" alt="[​IMG]" data-url="https://images2.imgbox.com/bc/cd/4YVg5QM7_o.jpg" style=""><img src="https://images2.imgbox.com/15/9b/L4HpxiME_o.jpg" class="bbCodeImage LbImage" alt="[​IMG]" data-url="https://images2.imgbox.com/15/9b/L4HpxiME_o.jpg" style=""><img src="https://images2.imgbox.com/df/51/WBGM8RCe_o.jpg" class="bbCodeImage LbImage" alt="[​IMG]" data-url="https://images2.imgbox.com/df/51/WBGM8RCe_o.jpg" style=""><img src="https://images2.imgbox.com/de/fd/nHDWwzWZ_o.jpg" class="bbCodeImage LbImage" alt="[​IMG]" data-url="https://images2.imgbox.com/de/fd/nHDWwzWZ_o.jpg" style=""><img src="https://images2.imgbox.com/aa/00/fYRpCCOB_o.jpg" class="bbCodeImage LbImage" alt="[​IMG]" data-url="https://images2.imgbox.com/aa/00/fYRpCCOB_o.jpg" style=""><br>
<br>
<div class="ToggleTriggerAnchor bbCodeSpoilerContainer">
<button type="button" class="button bbCodeSpoilerButton ToggleTrigger Tooltip JsOnly" data-target="> .SpoilerTarget"><span>Spoiler: <span class="SpoilerTitle">File List</span></span></button>
<div class="SpoilerTarget bbCodeSpoilerText">22<br>
Anti-Hero <br>
Back To December <br>
Bad Blood<br>
Begin Again <br>
Bejeweled <br>
Blank Space <br>
cardigan<br>
Delicate <br>
End Game<br>
Fifteen <br>
I Can See You <br>
I Don't Wanna Live Forever<br>
I Knew You Were Trouble <br>
Karma<br>
Lavender Haze <br>
Look What You Made Me Do<br>
Lover <br>
Me!<br>
Mean <br>
Mine <br>
New Romantics <br>
Ours <br>
Out Of The Woods <br>
Ready For It <br>
Red <br>
Safe &amp; Sound<br>
Shake It Off <br>
Style <br>
The Man <br>
The Story of Us <br>
We Are Never Ever Getting Back Together<br>
Wildest Dreams <br>
willow <br>
You Need To Calm Down</div>
</div><br>
<div class="ToggleTriggerAnchor bbCodeSpoilerContainer">
<button type="button" class="button bbCodeSpoilerButton ToggleTrigger Tooltip JsOnly" data-target="> .SpoilerTarget"><span>Spoiler: <span class="SpoilerTitle">Example Media Info</span></span></button>
<div class="SpoilerTarget bbCodeSpoilerText">
<div class="bbCodeBlock bbCodeCode">
<div class="type">Code:</div>
<pre>Format                      : Matroska
Format version              : Version 4
File size                   : 593 MiB
Duration                    : 3 min 56 s
Overall bit rate mode       : Variable
Overall bit rate            : 21.0 Mb/s
Frame rate                  : 23.976 FPS
Encoded date                : 2021-07-08 09:07:08 UTC
Writing application         : mkvmerge v51.0.0 ('I Wish') 64-bit
Writing library             : libebml v1.4.0 + libmatroska v1.6.2

Video
ID                          : 1
Format                      : HEVC
Format/Info                 : High Efficiency Video Coding
Format profile              : Main 10@L5@Main
Codec ID                    : V_MPEGH/ISO/HEVC
Duration                    : 3 min 56 s
Bit rate                    : 19.5 Mb/s
Width                       : 3 840 pixels
Height                      : 2 160 pixels
Display aspect ratio        : 16:9
Frame rate mode             : Constant
Frame rate                  : 23.976 (24000/1001) FPS
Color space                 : YUV
Chroma subsampling          : 4:2:0
Bit depth                   : 10 bits
Bits/(Pixel*Frame)          : 0.098
Stream size                 : 550 MiB (93%)
Writing library             : x265 3.2.1+1-b5c86a64bbbe:[Windows][GCC 9.2.0][64 bit] 10bit
Encoding settings           : cpuid=1111039 / frame-threads=3 / numa-pools=12 / wpp / no-pmode / no-pme / no-psnr / no-ssim / log-level=2 / input-csp=1 / input-res=3840x2160 / interlace=0 / total-frames=0 / level-idc=0 / high-tier=1 / uhd-bd=0 / ref=3 / no-allow-non-conformance / no-repeat-headers / annexb / no-aud / no-hrd / info / hash=0 / no-temporal-layers / open-gop / min-keyint=24 / keyint=240 / gop-lookahead=0 / bframes=4 / b-adapt=2 / b-pyramid / bframe-bias=0 / rc-lookahead=20 / lookahead-slices=8 / scenecut=40 / radl=0 / no-splice / no-intra-refresh / ctu=64 / min-cu-size=8 / no-rect / no-amp / max-tu-size=32 / tu-inter-depth=1 / tu-intra-depth=1 / limit-tu=0 / rdoq-level=0 / dynamic-rd=0.00 / no-ssim-rd / signhide / no-tskip / nr-intra=0 / nr-inter=0 / no-constrained-intra / strong-intra-smoothing / max-merge=3 / limit-refs=1 / no-limit-modes / me=1 / subme=2 / merange=57 / temporal-mvp / no-hme / weightp / no-weightb / no-analyze-src-pics / deblock=0:0 / sao / no-sao-non-deblock / rd=3 / selective-sao=4 / early-skip / rskip / no-fast-intra / no-tskip-fast / no-cu-lossless / b-intra / no-splitrd-skip / rdpenalty=0 / psy-rd=2.00 / psy-rdoq=0.00 / no-rd-refine / no-lossless / cbqpoffs=0 / crqpoffs=0 / rc=crf / crf=17.0 / qcomp=0.60 / qpstep=4 / stats-write=0 / stats-read=0 / ipratio=1.40 / pbratio=1.30 / aq-mode=2 / aq-strength=1.00 / cutree / zone-count=0 / no-strict-cbr / qg-size=32 / no-rc-grain / qpmax=69 / qpmin=0 / no-const-vbv / sar=1 / overscan=0 / videoformat=5 / range=0 / colorprim=1 / transfer=1 / colormatrix=1 / chromaloc=0 / display-window=0 / cll=0,0 / min-luma=0 / max-luma=1023 / log2-max-poc-lsb=8 / vui-timing-info / vui-hrd-info / slices=1 / no-opt-qp-pps / no-opt-ref-list-length-pps / no-multi-pass-opt-rps / scenecut-bias=0.05 / no-opt-cu-delta-qp / no-aq-motion / no-hdr / no-hdr-opt / no-dhdr10-opt / no-idr-recovery-sei / analysis-reuse-level=5 / scale-factor=0 / refine-intra=0 / refine-inter=0 / refine-mv=1 / refine-ctu-distortion=0 / no-limit-sao / ctu-info=0 / no-lowpass-dct / refine-analysis-type=0 / copy-pic=1 / max-ausize-factor=1.0 / no-dynamic-refine / no-single-sei / no-hevc-aq / no-svt / no-field / qp-adaptation-range=1.00
Default                     : Yes
Forced                      : No
Color range                 : Limited
Color primaries             : BT.709
Transfer characteristics    : BT.709
Matrix coefficients         : BT.709

Audio #1
ID                          : 2
Format                      : FLAC
Format/Info                 : Free Lossless Audio Codec
Codec ID                    : A_FLAC
Duration                    : 3 min 56 s
Bit rate mode               : Variable
Bit rate                    : 1 122 kb/s
Channel(s)                  : 2 channels
Channel layout              : L R
Sampling rate               : 48.0 kHz
Frame rate                  : 11.720 FPS (4096 SPF)
Bit depth                   : 16 bits
Compression mode            : Lossless
Delay relative to video     : -20 ms
Stream size                 : 31.7 MiB (5%)
Writing library             : libFLAC 1.3.1 (2014-11-25)
Default                     : Yes
Forced                      : No
MD5 of the unencoded conten : 2B2A7AE25D29A455BCF6DD14C0076576

Audio #2
ID                          : 3
Format                      : AC-3
Format/Info                 : Audio Coding 3
Commercial name             : Dolby Digital
Codec ID                    : A_AC3
Duration                    : 3 min 56 s
Bit rate mode               : Constant
Bit rate                    : 384 kb/s
Channel(s)                  : 2 channels
Channel layout              : L R
Sampling rate               : 48.0 kHz
Frame rate                  : 31.250 FPS (1536 SPF)
Compression mode            : Lossy
Delay relative to video     : -20 ms
Stream size                 : 10.8 MiB (2%)
Service kind                : Complete Main
Default                     : No
Forced                      : No

</pre>
</div></div>
</div><br>
<br>
Hello everyone, <br>
After so many requests I'm reuploading my Taylor Swift Upscales. All videos upscaled from the highest quality Master or ProRes file I could find. (Only Look What You Made Me Do is a rip from 4K ProRes) If a video is not here it means I don't have it in a good quality that would worth my time to upscale. If I obtain new videos I'm planning to update the folder. You can also send me the ProRes files and I would upscale them. <img src="styles/default/xenforo/smilies/grimace-48.png" class="mceSmilie" alt=":p" title="Stick Out Tongue    :p"><br>
<br>
I won't upload my 1080p upscales since other people already upscaled them with ProRes resources and they look better. If I also get them (Picture to Burn, Change, You Belong With Me etc.) in ProRes I'd also upload them. Also can't promise another reupload if the folder is removed.<br>
<br>
<b>Host</b>: pixeldrain<br>
<br>
<div class="bbCodeBlock bbCodeVfcHH HiddenContent">
<div class="attribution type">Hidden Content:</div>
<blockquote>You must reply before you can see the hidden data contained here.</blockquote>
</div>
<div class="messageTextEndMarker">&nbsp;</div>
</blockquote>
</article>]]></description>
                <author><![CDATA[thankstome]]></author>
                </item>

                </channel></rss>